<mxfile host="app.diagrams.net" modified="2021-05-16T07:05:36.989Z" agent="5.0 (Macintosh; Intel Mac OS X 10_15_7) AppleWebKit/537.36 (KHTML, like Gecko) Chrome/86.0.4240.193 Safari/537.36" etag="tW0PSJ6Ew0FGO66sWfJH" version="14.6.13" type="github">
  <diagram id="q4yk4vQq4ROSMTjgM7W1" name="Page-1">
    <mxGraphModel dx="946" dy="536" grid="1" gridSize="10" guides="1" tooltips="1" connect="1" arrows="1" fold="1" page="1" pageScale="1" pageWidth="827" pageHeight="1169" math="0" shadow="0">
      <root>
        <mxCell id="0" />
        <mxCell id="1" parent="0" />
        <mxCell id="bigCi6Kf1mQMlQoF0auz-1" value="" style="rounded=1;whiteSpace=wrap;html=1;fillColor=#dae8fc;strokeColor=#6c8ebf;" vertex="1" parent="1">
          <mxGeometry x="170" y="200" width="280" height="170" as="geometry" />
        </mxCell>
        <mxCell id="bigCi6Kf1mQMlQoF0auz-2" value="MySQL" style="text;html=1;strokeColor=none;fillColor=none;align=center;verticalAlign=middle;whiteSpace=wrap;rounded=0;" vertex="1" parent="1">
          <mxGeometry x="290" y="220" width="40" height="20" as="geometry" />
        </mxCell>
        <mxCell id="bigCi6Kf1mQMlQoF0auz-3" value="Buffer Pool 缓冲池" style="rounded=1;whiteSpace=wrap;html=1;fillColor=#d5e8d4;strokeColor=#82b366;" vertex="1" parent="1">
          <mxGeometry x="240" y="270" width="140" height="60" as="geometry" />
        </mxCell>
        <mxCell id="bigCi6Kf1mQMlQoF0auz-14" style="edgeStyle=orthogonalEdgeStyle;rounded=0;orthogonalLoop=1;jettySize=auto;html=1;exitX=0.5;exitY=0;exitDx=0;exitDy=0;entryX=0.5;entryY=1;entryDx=0;entryDy=0;" edge="1" parent="1" source="bigCi6Kf1mQMlQoF0auz-4" target="bigCi6Kf1mQMlQoF0auz-3">
          <mxGeometry relative="1" as="geometry" />
        </mxCell>
        <mxCell id="bigCi6Kf1mQMlQoF0auz-4" value="" style="rounded=1;whiteSpace=wrap;html=1;fillColor=#ffe6cc;strokeColor=#d79b00;" vertex="1" parent="1">
          <mxGeometry x="215" y="420" width="190" height="170" as="geometry" />
        </mxCell>
        <mxCell id="bigCi6Kf1mQMlQoF0auz-5" value="一行数据" style="rounded=1;whiteSpace=wrap;html=1;fillColor=#f5f5f5;strokeColor=#666666;fontColor=#333333;" vertex="1" parent="1">
          <mxGeometry x="255" y="460" width="110" height="25" as="geometry" />
        </mxCell>
        <mxCell id="bigCi6Kf1mQMlQoF0auz-6" value="一行数据" style="rounded=1;whiteSpace=wrap;html=1;fillColor=#f5f5f5;strokeColor=#666666;fontColor=#333333;" vertex="1" parent="1">
          <mxGeometry x="255" y="500" width="110" height="25" as="geometry" />
        </mxCell>
        <mxCell id="bigCi6Kf1mQMlQoF0auz-7" value="一行数据" style="rounded=1;whiteSpace=wrap;html=1;fillColor=#f5f5f5;strokeColor=#666666;fontColor=#333333;" vertex="1" parent="1">
          <mxGeometry x="255" y="540" width="110" height="25" as="geometry" />
        </mxCell>
        <mxCell id="bigCi6Kf1mQMlQoF0auz-8" value="数据页" style="text;html=1;strokeColor=none;fillColor=none;align=center;verticalAlign=middle;whiteSpace=wrap;rounded=0;" vertex="1" parent="1">
          <mxGeometry x="290" y="430" width="40" height="20" as="geometry" />
        </mxCell>
        <mxCell id="bigCi6Kf1mQMlQoF0auz-10" style="edgeStyle=orthogonalEdgeStyle;rounded=0;orthogonalLoop=1;jettySize=auto;html=1;exitX=0;exitY=0.5;exitDx=0;exitDy=0;" edge="1" parent="1" source="bigCi6Kf1mQMlQoF0auz-9" target="bigCi6Kf1mQMlQoF0auz-4">
          <mxGeometry relative="1" as="geometry" />
        </mxCell>
        <mxCell id="bigCi6Kf1mQMlQoF0auz-9" value="磁盘文件" style="rounded=1;whiteSpace=wrap;html=1;fillColor=#fff2cc;strokeColor=#d6b656;" vertex="1" parent="1">
          <mxGeometry x="550" y="475" width="120" height="60" as="geometry" />
        </mxCell>
        <mxCell id="bigCi6Kf1mQMlQoF0auz-11" value="包含很多数据页面" style="text;html=1;strokeColor=none;fillColor=none;align=center;verticalAlign=middle;whiteSpace=wrap;rounded=0;" vertex="1" parent="1">
          <mxGeometry x="414" y="470" width="140" height="25" as="geometry" />
        </mxCell>
      </root>
    </mxGraphModel>
  </diagram>
</mxfile>
